<?xml version="1.0" standalone="no"?>
<!DOCTYPE svg PUBLIC "-//W3C//DTD SVG 20010904//EN"
 "http://www.w3.org/TR/2001/REC-SVG-20010904/DTD/svg10.dtd">
<svg version="1.0" xmlns="http://www.w3.org/2000/svg"
 width="934.000000pt" height="934.000000pt" viewBox="0 0 934.000000 934.000000"
 preserveAspectRatio="xMidYMid meet">

<g transform="translate(0.000000,934.000000) scale(0.100000,-0.100000)"
fill="#000000" stroke="none">
<path d="M2638 7113 c-26 -6 -34 -50 -14 -72 8 -9 39 -25 69 -34 29 -9 73 -30
99 -46 87 -55 82 -16 89 -701 5 -573 7 -609 27 -685 91 -345 260 -530 567
-619 110 -32 323 -45 450 -27 340 48 569 277 643 643 l19 93 347 3 346 2 2
-222 c1 -266 2 -264 -21 -308 -20 -39 -74 -74 -169 -109 -69 -26 -90 -57 -58
-89 15 -15 59 -17 406 -20 437 -3 470 0 470 48 0 32 -20 46 -95 70 -64 20
-129 66 -148 105 -15 31 -17 71 -17 280 l0 245 183 0 c210 0 327 11 452 41
199 47 328 113 441 224 132 130 184 257 184 450 0 132 -15 200 -72 314 -108
223 -369 373 -710 410 -129 14 -1062 15 -1089 1 -24 -13 -25 -52 -1 -72 9 -9
40 -23 68 -32 70 -23 140 -69 158 -105 14 -26 16 -102 16 -581 l0 -550 -340 0
-340 0 2 554 c3 544 3 555 24 582 23 32 97 72 193 106 74 27 94 55 61 88 -19
19 -35 20 -339 20 -277 0 -322 -2 -335 -16 -17 -16 -20 -33 -10 -58 3 -8 48
-29 99 -46 68 -22 106 -42 137 -69 l43 -39 3 -562 2 -562 -242 4 c-269 5 -334
16 -398 67 -53 41 -72 85 -67 154 6 101 72 153 159 126 40 -13 46 -20 81 -91
34 -71 40 -78 67 -78 113 0 20 234 -107 269 -160 45 -296 -47 -310 -210 -14
-151 69 -262 237 -315 43 -13 109 -18 310 -23 l255 -6 -3 -35 c-9 -99 -73
-265 -141 -363 -71 -104 -201 -192 -327 -222 -71 -17 -203 -19 -276 -4 -29 6
-87 27 -128 46 -152 72 -258 219 -317 438 l-27 100 -4 618 c-3 614 -3 617 18
655 28 49 57 69 154 107 73 28 81 34 84 60 7 55 6 55 -437 54 -223 -1 -414 -3
-423 -6z m3397 -116 c260 -58 431 -221 481 -457 18 -86 14 -250 -10 -338 -79
-292 -310 -432 -716 -432 l-140 0 0 626 0 627 163 -6 c89 -4 189 -13 222 -20z"/>
<path d="M2722 4552 c-12 -2 -27 -12 -33 -23 -17 -33 11 -61 96 -94 91 -36
139 -76 154 -130 7 -28 11 -287 11 -832 0 -893 4 -849 -74 -902 -22 -16 -70
-39 -104 -51 -91 -33 -117 -87 -55 -111 32 -12 794 -12 826 0 31 12 40 45 19
70 -10 11 -48 32 -87 47 -92 36 -124 59 -146 108 -18 39 -19 85 -19 929 l0
887 184 0 c162 0 195 -3 280 -24 132 -34 206 -75 296 -166 134 -133 188 -272
197 -510 6 -150 -9 -256 -51 -361 -71 -174 -204 -278 -367 -287 -186 -11 -289
65 -289 211 0 61 3 68 34 101 39 42 76 49 139 24 19 -7 35 -27 54 -68 30 -67
61 -82 95 -48 26 26 20 71 -17 135 -65 110 -253 126 -347 30 -54 -55 -72 -111
-66 -201 6 -85 33 -142 95 -196 190 -167 631 -114 870 104 156 143 236 333
236 566 1 217 -64 388 -197 524 -111 113 -232 177 -440 232 -101 27 -102 27
-516 31 -228 2 -491 4 -585 6 -93 1 -180 1 -193 -1z"/>
<path d="M5228 4550 c-30 -8 -48 -55 -27 -75 8 -8 49 -24 91 -34 99 -26 117
-35 133 -75 11 -26 12 -42 3 -72 -5 -21 -87 -235 -180 -474 -93 -239 -214
-552 -270 -695 -55 -143 -116 -300 -134 -348 -63 -160 -110 -211 -228 -247
-137 -42 -141 -44 -144 -72 -2 -18 4 -31 20 -42 19 -14 66 -16 343 -16 348 0
365 2 365 55 0 30 -20 41 -109 60 -173 36 -202 81 -145 231 45 120 154 398
169 432 8 18 15 39 15 47 0 13 56 15 403 15 l404 0 99 -272 c114 -316 120
-351 67 -398 -18 -17 -58 -36 -90 -45 -32 -9 -75 -20 -95 -26 -45 -12 -61 -50
-34 -77 15 -15 61 -17 449 -20 238 -2 447 0 464 3 43 8 60 38 39 70 -11 17
-32 27 -73 35 -153 32 -195 75 -270 279 -20 53 -46 125 -59 161 -14 36 -37
101 -53 145 -16 44 -34 93 -40 108 -6 16 -11 30 -11 33 0 2 51 4 113 4 184 0
295 33 377 112 62 60 85 116 85 213 0 70 -4 86 -28 128 -111 188 -388 134
-423 -81 -8 -49 13 -82 52 -82 32 0 50 22 58 70 8 52 50 96 99 105 123 23 184
-154 90 -266 -14 -16 -49 -42 -77 -57 -49 -26 -59 -27 -221 -30 l-170 -3 -145
398 c-197 545 -288 785 -298 795 -10 10 -575 17 -614 8z m495 -723 c92 -254
167 -465 167 -469 0 -5 -160 -8 -356 -8 -281 0 -355 3 -351 13 3 6 86 218 183
470 98 251 180 457 183 457 3 0 81 -208 174 -463z"/>
</g>
</svg>
