<?xml version="1.0" standalone="no"?>
<!DOCTYPE svg PUBLIC "-//W3C//DTD SVG 20010904//EN"
 "http://www.w3.org/TR/2001/REC-SVG-20010904/DTD/svg10.dtd">
<svg version="1.0" xmlns="http://www.w3.org/2000/svg"
 width="354.000000pt" height="337.000000pt" viewBox="0 0 354.000000 337.000000"
 preserveAspectRatio="xMidYMid meet">

<g transform="translate(0.000000,337.000000) scale(0.100000,-0.100000)"
fill="#000000" stroke="none">
<path d="M0 1685 l0 -1685 1770 0 1770 0 0 1685 0 1685 -1770 0 -1770 0 0
-1685z m1018 1373 c23 -23 12 -38 -45 -64 -98 -42 -93 -16 -93 -434 0 -394 5
-438 55 -545 30 -62 97 -128 163 -158 38 -18 66 -22 142 -22 85 0 101 3 153
29 98 50 159 132 193 261 22 79 27 75 -104 75 -240 0 -335 42 -357 156 -16 89
49 174 135 174 54 0 103 -27 125 -69 21 -41 19 -68 -5 -81 -26 -14 -37 -7 -45
30 -7 32 -47 70 -75 70 -10 0 -29 -9 -44 -21 -21 -17 -26 -29 -26 -65 0 -61
13 -82 68 -107 39 -17 74 -21 200 -25 l152 -5 0 330 c0 383 4 366 -101 404
-64 24 -79 40 -59 64 10 12 46 15 195 15 149 0 185 -3 195 -15 20 -24 5 -40
-59 -64 -105 -38 -101 -22 -101 -402 l0 -329 200 0 200 0 0 329 c0 377 3 363
-97 407 -55 25 -67 46 -34 64 25 13 526 13 641 0 156 -18 300 -83 371 -169 16
-20 42 -61 57 -91 25 -50 27 -65 27 -170 0 -105 -2 -120 -28 -171 -54 -111
-181 -196 -347 -234 -42 -9 -140 -19 -222 -22 l-148 -6 0 -142 c0 -167 5 -179
94 -215 57 -23 74 -43 55 -66 -10 -12 -58 -14 -263 -12 l-251 3 0 24 c0 19 9
27 45 41 25 10 57 30 73 44 l27 27 0 150 0 149 -203 0 -203 0 -17 -72 c-56
-241 -221 -368 -476 -368 -152 1 -281 49 -372 140 -61 60 -84 99 -120 200 -22
62 -23 82 -28 446 -7 436 1 403 -102 448 -59 27 -70 41 -47 64 17 17 489 17
506 0z m284 -1532 c129 -25 205 -61 279 -135 92 -92 111 -146 110 -301 -1
-173 -35 -257 -144 -356 -96 -88 -192 -120 -337 -112 -99 6 -155 29 -194 81
-72 94 -23 232 87 244 78 9 142 -42 135 -109 -4 -44 -33 -50 -50 -11 -29 69
-80 85 -117 37 -39 -50 -22 -119 38 -157 49 -30 149 -30 207 0 120 64 181 225
155 414 -21 154 -91 263 -208 321 -62 30 -72 32 -209 36 l-144 5 0 -536 0
-535 24 -29 c14 -16 43 -36 66 -43 48 -16 75 -47 58 -67 -8 -10 -66 -13 -260
-13 -221 0 -249 2 -255 16 -9 25 9 46 52 61 22 7 52 25 67 40 l28 27 0 498 c0
567 5 531 -86 568 -44 18 -54 27 -54 46 l0 24 339 0 c250 0 359 -4 413 -14z
m1137 -13 c7 -15 64 -171 128 -347 64 -177 121 -327 127 -335 15 -19 174 -8
223 16 94 44 97 193 4 193 -32 0 -56 -23 -72 -68 -14 -42 -55 -46 -65 -6 -16
62 55 134 131 134 81 0 135 -59 135 -148 0 -116 -101 -182 -277 -182 -58 0
-64 -2 -58 -17 3 -10 31 -88 61 -173 31 -85 62 -165 70 -178 21 -33 74 -62
111 -62 17 0 39 -7 47 -16 20 -19 20 -19 1 -38 -13 -13 -55 -15 -276 -15 -143
0 -271 4 -285 9 -34 13 -28 42 11 54 156 46 154 39 74 261 l-63 175 -236 0
-235 0 -68 -176 c-43 -110 -66 -183 -62 -195 9 -27 40 -44 103 -59 58 -13 76
-35 47 -56 -14 -11 -58 -14 -174 -13 -176 1 -206 6 -206 34 0 19 15 27 80 40
16 4 47 25 70 48 35 36 52 71 119 247 43 113 122 315 174 450 129 333 127 326
98 355 -14 14 -42 26 -71 30 -47 8 -62 22 -51 50 4 13 35 15 189 15 l184 0 12
-27z"/>
<path d="M2353 3002 l-53 -3 0 -365 0 -364 88 0 c160 0 287 42 352 116 106
122 115 349 19 471 -84 105 -226 155 -406 145z"/>
<path d="M2137 1132 c-54 -142 -100 -267 -103 -280 l-6 -22 207 0 207 0 -4 25
c-7 35 -192 535 -198 535 -3 0 -49 -116 -103 -258z"/>
</g>
</svg>
